<svg id="visual" viewBox="0 0 900 600" width="900" height="600" xmlns="http://www.w3.org/2000/svg" xmlns:xlink="http://www.w3.org/1999/xlink" version="1.1"><path d="M0 446L21.5 441.5C43 437 86 428 128.8 415.5C171.7 403 214.3 387 257.2 389.8C300 392.7 343 414.3 385.8 421.2C428.7 428 471.3 420 514.2 411C557 402 600 392 642.8 396.3C685.7 400.7 728.3 419.3 771.2 424C814 428.7 857 419.3 878.5 414.7L900 410L900 601L878.5 601C857 601 814 601 771.2 601C728.3 601 685.7 601 642.8 601C600 601 557 601 514.2 601C471.3 601 428.7 601 385.8 601C343 601 300 601 257.2 601C214.3 601 171.7 601 128.8 601C86 601 43 601 21.5 601L0 601Z" fill="#fa7268"></path><path d="M0 471L21.5 463.8C43 456.7 86 442.3 128.8 440.5C171.7 438.7 214.3 449.3 257.2 454.7C300 460 343 460 385.8 449.8C428.7 439.7 471.3 419.3 514.2 415.8C557 412.3 600 425.7 642.8 438.7C685.7 451.7 728.3 464.3 771.2 466.3C814 468.3 857 459.7 878.5 455.3L900 451L900 601L878.5 601C857 601 814 601 771.2 601C728.3 601 685.7 601 642.8 601C600 601 557 601 514.2 601C471.3 601 428.7 601 385.8 601C343 601 300 601 257.2 601C214.3 601 171.7 601 128.8 601C86 601 43 601 21.5 601L0 601Z" fill="#ff7b57"></path><path d="M0 460L21.5 459.5C43 459 86 458 128.8 456.2C171.7 454.3 214.3 451.7 257.2 448.8C300 446 343 443 385.8 451.2C428.7 459.3 471.3 478.7 514.2 489.8C557 501 600 504 642.8 495C685.7 486 728.3 465 771.2 457.3C814 449.7 857 455.3 878.5 458.2L900 461L900 601L878.5 601C857 601 814 601 771.2 601C728.3 601 685.7 601 642.8 601C600 601 557 601 514.2 601C471.3 601 428.7 601 385.8 601C343 601 300 601 257.2 601C214.3 601 171.7 601 128.8 601C86 601 43 601 21.5 601L0 601Z" fill="#ff8744"></path><path d="M0 496L21.5 501.3C43 506.7 86 517.3 128.8 517.5C171.7 517.7 214.3 507.3 257.2 508.7C300 510 343 523 385.8 529.8C428.7 536.7 471.3 537.3 514.2 534.5C557 531.7 600 525.3 642.8 519.8C685.7 514.3 728.3 509.7 771.2 511.5C814 513.3 857 521.7 878.5 525.8L900 530L900 601L878.5 601C857 601 814 601 771.2 601C728.3 601 685.7 601 642.8 601C600 601 557 601 514.2 601C471.3 601 428.7 601 385.8 601C343 601 300 601 257.2 601C214.3 601 171.7 601 128.8 601C86 601 43 601 21.5 601L0 601Z" fill="#ff952d"></path><path d="M0 526L21.5 532.2C43 538.3 86 550.7 128.8 550.7C171.7 550.7 214.3 538.3 257.2 538.8C300 539.3 343 552.7 385.8 557.8C428.7 563 471.3 560 514.2 561C557 562 600 567 642.8 568.2C685.7 569.3 728.3 566.7 771.2 561C814 555.3 857 546.7 878.5 542.3L900 538L900 601L878.5 601C857 601 814 601 771.2 601C728.3 601 685.7 601 642.8 601C600 601 557 601 514.2 601C471.3 601 428.7 601 385.8 601C343 601 300 601 257.2 601C214.3 601 171.7 601 128.8 601C86 601 43 601 21.5 601L0 601Z" fill="#ffa500"></path></svg>