<svg id="visual" viewBox="0 0 900 600" width="900" height="600" xmlns="http://www.w3.org/2000/svg" xmlns:xlink="http://www.w3.org/1999/xlink" version="1.1"><path d="M0 202L129 200L257 227L386 186L514 236L643 197L771 194L900 199L900 0L771 0L643 0L514 0L386 0L257 0L129 0L0 0Z" fill="#fa7268"></path><path d="M0 175L129 160L257 144L386 146L514 171L643 133L771 172L900 179L900 0L771 0L643 0L514 0L386 0L257 0L129 0L0 0Z" fill="#ff7b57"></path><path d="M0 87L129 97L257 113L386 92L514 119L643 160L771 156L900 107L900 0L771 0L643 0L514 0L386 0L257 0L129 0L0 0Z" fill="#ff8744"></path><path d="M0 68L129 82L257 80L386 90L514 67L643 66L771 76L900 93L900 0L771 0L643 0L514 0L386 0L257 0L129 0L0 0Z" fill="#ff952d"></path><path d="M0 41L129 45L257 71L386 41L514 25L643 51L771 59L900 33L900 0L771 0L643 0L514 0L386 0L257 0L129 0L0 0Z" fill="#ffa500"></path></svg>