<?xml version="1.0" encoding="utf-8"?>
<svg viewBox="0 0 500 500" width="500" height="500" xmlns="http://www.w3.org/2000/svg">
  <path class="cls-1" d="M 465.932 9.178 C 462.254 10.782 458.199 15.497 455.653 21.061 C 454.05 24.456 453.672 27.191 453.672 35.207 C 453.672 40.677 454.05 46.241 454.427 47.75 C 455.087 50.202 454.993 50.297 452.541 49.636 C 451.032 49.259 445.468 48.882 439.998 48.882 C 431.887 48.882 429.341 49.259 425.757 50.957 C 411.422 57.464 405.575 72.082 409.442 91.792 L 409.913 94.15 L 397.37 94.15 C 385.488 94.15 384.545 94.339 379.452 96.791 C 373.699 99.62 369.55 103.769 366.249 109.994 C 364.268 113.577 364.08 115.275 364.08 126.969 L 364.08 139.984 L 360.873 139.418 C 355.875 138.475 343.521 138.663 339.465 139.795 C 330.412 142.247 322.49 149.98 319.755 159.034 C 318.246 164.221 317.963 174.783 319.189 181.196 C 319.944 185.063 319.849 185.252 317.963 184.78 C 311.55 183.271 301.459 183.177 295.706 184.591 C 285.05 187.326 278.731 193.079 278.071 200.907 C 277.599 206.659 279.957 211.281 284.955 214.11 C 289.765 216.939 293.16 216.845 299.29 213.733 C 304.194 211.281 304.477 211.186 311.079 212.412 C 329.752 215.713 333.618 215.713 340.22 212.318 C 342.2 211.375 344.935 208.829 346.35 206.659 C 349.651 201.755 350.216 193.551 348.142 182.422 C 346.255 172.331 346.161 167.333 348.047 166.673 C 348.802 166.296 354.838 167.05 361.345 168.182 C 374.359 170.539 379.263 170.351 385.205 167.239 C 391.146 164.221 394.73 157.619 394.73 149.886 C 394.73 147.717 393.881 141.115 392.749 135.268 C 391.712 129.421 391.052 124.046 391.335 123.291 C 391.995 121.499 398.314 121.594 407.556 123.48 C 422.362 126.592 432.925 123.763 437.074 115.558 C 439.998 109.805 440.281 105.09 438.489 94.999 C 437.546 89.812 436.791 83.776 436.697 81.418 C 436.697 77.269 436.791 77.174 439.809 76.892 C 441.507 76.703 446.128 77.269 449.994 78.023 C 472.157 82.644 483.379 77.08 484.134 61.142 C 484.323 57.464 483.851 50.863 483.002 46.43 C 481.022 35.773 481.116 32.85 483.568 29.549 C 486.303 25.777 486.397 18.326 483.757 14.743 C 479.23 8.801 471.874 6.443 465.932 9.178 Z" style="fill: rgb(255, 255, 255);"/>
  <path class="cls-1" d="M 273.921 20.401 C 271.941 21.721 270.055 24.268 268.923 27.003 C 267.32 30.869 267.225 32.001 268.168 35.962 C 270.432 44.732 271.186 56.049 270.243 66.046 C 267.508 92.547 257.04 114.332 234.972 138.758 C 228.276 146.114 227.333 148.283 228.087 154.224 C 228.748 159.411 231.388 162.618 236.481 164.787 C 243.837 167.805 246.666 166.673 256.568 156.488 C 286.181 126.12 302.025 84.625 298.536 46.996 C 297.404 35.396 295.706 27.757 293.349 24.268 C 289.388 18.232 279.957 16.346 273.921 20.401 Z" style="fill: rgb(255, 255, 255);"/>
  <path class="cls-1" d="M 348.802 48.505 C 336.636 51.051 333.807 67.366 344.369 73.968 C 350.028 77.457 359.176 75.666 363.042 70.384 C 365.872 66.612 366.154 58.69 363.797 54.823 C 360.59 49.636 354.743 47.184 348.802 48.505 Z" style="fill: rgb(255, 255, 255);"/>
  <path class="cls-1" d="M 204.133 70.384 C 192.533 78.118 197.909 95.753 211.772 95.753 C 219.317 95.753 224.787 90.755 225.635 83.21 C 226.39 75.005 220.166 68.215 211.772 68.215 C 208.754 68.215 206.302 68.875 204.133 70.384 Z" style="fill: rgb(255, 255, 255);"/>
  <path class="cls-1" d="M 156.13 151.772 C 152.735 159.694 147.737 174.689 145.285 184.12 C 128.215 252.21 143.399 323.13 187.158 379.432 C 193.854 388.108 210.829 405.555 219.6 412.911 L 225.07 417.438 L 246.006 409.61 C 257.512 405.367 270.243 400.557 274.298 399.048 L 281.56 396.219 L 276.185 390.466 C 250.438 362.551 228.842 322.941 218.845 284.935 C 212.432 260.509 209.132 232.217 210.263 211.092 L 210.829 199.775 L 184.517 173.463 L 158.111 147.057 L 156.13 151.772 Z" style="fill: rgb(255, 255, 255);"/>
  <path class="cls-1" d="M 448.957 148.377 C 442.261 149.792 437.923 155.167 437.923 162.052 C 437.923 170.162 443.676 175.726 451.881 175.726 C 460.085 175.726 465.461 170.257 465.461 162.052 C 465.461 152.904 457.728 146.491 448.957 148.377 Z" style="fill: rgb(255, 255, 255);"/>
  <path class="cls-1" d="M 430.567 205.528 C 409.913 209.394 400.294 212.507 385.205 220.146 C 372.756 226.464 361.25 234.48 349.179 245.043 C 339.937 253.153 337.956 256.171 337.956 262.113 C 337.956 270.129 343.709 275.882 351.725 275.882 C 357.101 275.882 358.421 275.033 367.475 266.734 C 381.244 254.096 399.257 243.251 415.383 238.064 C 430.567 233.16 449.429 231.84 464.612 234.763 C 474.043 236.555 476.401 236.178 481.022 232.217 C 487.34 226.653 487.435 217.316 481.116 211.752 C 476.212 207.414 467.158 205.622 448.485 205.339 C 439.903 205.245 431.887 205.339 430.567 205.528 Z" style="fill: rgb(255, 255, 255);"/>
  <path class="cls-1" d="M 87.851 274.467 L 65.406 334.447 L 66.538 339.728 C 71.536 362.362 89.643 398.105 107.467 420.456 C 113.975 428.566 135.288 450.163 136.797 450.163 C 138.023 450.163 193.005 429.698 193.759 428.944 C 193.948 428.661 189.044 423.285 182.914 416.872 C 170.088 403.858 162.543 394.615 153.301 380.846 C 131.988 348.97 118.596 314.265 112.654 275.599 C 110.863 264.376 110.485 257.869 110.485 238.158 C 110.391 225.144 110.391 214.393 110.391 214.393 C 110.391 214.393 100.3 241.365 87.851 274.467 Z" style="fill: rgb(255, 255, 255);"/>
  <path class="cls-1" d="M 238.744 234.386 C 242.705 279.843 257.417 319.641 282.975 353.874 C 290.519 363.965 307.023 382.638 309.758 384.147 C 311.173 384.807 316.171 383.298 332.487 377.168 C 344.181 372.83 354.932 368.209 356.629 366.795 C 358.704 365.191 360.119 362.928 360.873 360.382 C 363.137 351.894 365.211 354.346 299.667 288.613 C 266.659 255.605 239.31 228.539 238.933 228.539 C 238.556 228.539 238.461 231.18 238.744 234.386 Z" style="fill: rgb(255, 255, 255);"/>
  <path class="cls-1" d="M 426.323 289.273 C 422.645 290.877 418.684 295.592 417.835 299.176 C 415.761 308.512 425.757 318.132 434.999 315.774 C 447.448 312.662 449.523 295.309 438.112 289.651 C 434.245 287.67 430.284 287.576 426.323 289.273 Z" style="fill: rgb(255, 255, 255);"/>
  <path class="cls-1" d="M 31.172 425.454 C 17.592 461.763 13.254 474.211 13.348 477.324 C 13.442 483.831 18.818 489.489 25.608 490.432 C 28.72 490.81 35.227 488.641 67.481 476.569 C 88.512 468.742 105.864 462.14 106.053 461.951 C 106.241 461.763 102.469 457.236 97.659 451.86 C 79.458 431.679 67.104 413.477 55.975 390.937 C 52.392 383.581 49.374 377.546 49.279 377.546 C 49.185 377.546 41.075 399.142 31.172 425.454 Z" style="fill: rgb(255, 255, 255);"/>
</svg>